<svg width="27" height="26" viewBox="0 0 27 26" fill="none" xmlns="http://www.w3.org/2000/svg">
<path d="M20.8 3.6001L26 3.6001" stroke="white" stroke-width="2" stroke-linecap="round"/>
<path d="M23.3999 6.2L23.3999 1" stroke="white" stroke-width="2" stroke-linecap="round"/>
<path d="M2.13496 7.32671L3.99576 19.4218C4.0093 19.5217 4.03763 19.6168 4.07846 19.705C4.20137 19.9704 4.43761 20.1726 4.72507 20.2495C4.81289 20.2731 4.90492 20.2849 4.99906 20.2833H15.9467C16.3868 20.2833 16.7748 19.9946 16.9013 19.573L19.8913 9.60642C19.9818 9.30465 19.9243 8.97785 19.7363 8.72509C19.5482 8.47233 19.2517 8.32337 18.9367 8.32337H10.8333H4.30508L3.97728 6.1927C3.965 6.10362 3.94095 6.01829 3.90674 5.93834C3.84465 5.79275 3.74958 5.66664 3.63214 5.56779C3.52319 5.47591 3.39425 5.40697 3.25279 5.3684C3.16375 5.34402 3.07033 5.3318 2.97475 5.33339H0.996666C0.446223 5.33339 0 5.77961 0 6.33005C0 6.88049 0.446223 7.32671 0.996666 7.32671H2.13496ZM5.83841 18.29L4.61174 10.3167H11.1044H17.5971L15.2051 18.29H5.83841Z" fill="white"/>
<path d="M7.97333 23.2733C7.97333 24.3741 7.08088 25.2666 5.98 25.2666C4.87911 25.2666 3.98666 24.3741 3.98666 23.2733C3.98666 22.1724 4.87911 21.2799 5.98 21.2799C7.08088 21.2799 7.97333 22.1724 7.97333 23.2733Z" fill="white"/>
<path d="M16.9433 23.2733C16.9433 24.3741 16.0509 25.2666 14.95 25.2666C13.8491 25.2666 12.9567 24.3741 12.9567 23.2733C12.9567 22.1724 13.8491 21.2799 14.95 21.2799C16.0509 21.2799 16.9433 22.1724 16.9433 23.2733Z" fill="white"/>
</svg>
