<svg width="21" height="19" viewBox="0 0 21 19" fill="none" xmlns="http://www.w3.org/2000/svg">
<path d="M0.166687 1.74992C0.166687 1.03655 0.744986 0.458252 1.45835 0.458252H19.5417C20.2551 0.458252 20.8334 1.03655 20.8334 1.74992C20.8334 2.46329 20.2551 3.04159 19.5417 3.04159H1.45835C0.744986 3.04159 0.166687 2.46329 0.166687 1.74992ZM0.166687 6.91658C0.166687 6.20322 0.744986 5.62492 1.45835 5.62492H19.5417C20.2551 5.62492 20.8334 6.20322 20.8334 6.91658C20.8334 7.62995 20.2551 8.20825 19.5417 8.20825H1.45835C0.744986 8.20825 0.166687 7.62995 0.166687 6.91658ZM0.166687 12.0833C0.166687 11.3699 0.744986 10.7916 1.45835 10.7916H19.5417C20.2551 10.7916 20.8334 11.3699 20.8334 12.0833C20.8334 12.7966 20.2551 13.3749 19.5417 13.3749H1.45835C0.744986 13.3749 0.166687 12.7966 0.166687 12.0833ZM0.166687 17.2499C0.166687 16.5366 0.744986 15.9583 1.45835 15.9583H19.5417C20.2551 15.9583 20.8334 16.5366 20.8334 17.2499C20.8334 17.9633 20.2551 18.5416 19.5417 18.5416H1.45835C0.744986 18.5416 0.166687 17.9633 0.166687 17.2499Z" fill="#7015FF"/>
</svg>
