<svg width="20" height="20" viewBox="0 0 20 20" fill="none" xmlns="http://www.w3.org/2000/svg">
<path d="M11.4 0.0960485C9.75109 -0.129639 8.07201 0.0564388 6.51257 0.637673C4.95313 1.21891 3.56186 2.17721 2.46296 3.42705C1.52246 4.51023 0.824642 5.78213 0.416381 7.15732C0.00811875 8.53251 -0.101135 9.97914 0.0959584 11.4C0.625958 15.294 3.55396 18.607 7.38096 19.646C8.23409 19.8795 9.11446 19.9986 9.99896 20L10.141 19.999C10.6465 19.9925 11.1422 19.8584 11.5821 19.6091C12.0219 19.3598 12.3917 19.0034 12.657 18.573C12.9232 18.145 13.0768 17.6566 13.1035 17.1532C13.1303 16.6499 13.0293 16.1479 12.81 15.694L12.611 15.278C12.4579 14.979 12.386 14.645 12.4025 14.3095C12.419 13.974 12.5233 13.6486 12.705 13.366C12.9649 12.9438 13.3721 12.633 13.8479 12.4935C14.3237 12.3541 14.8342 12.3959 15.281 12.611L15.693 12.808C16.105 13.006 16.543 13.107 16.994 13.107C17.7832 13.103 18.5396 12.7903 19.1013 12.2359C19.6631 11.6814 19.9856 10.9292 20 10.14C20.0123 9.20805 19.8935 8.27893 19.647 7.38005C18.607 3.55405 15.294 0.626049 11.4 0.0960485ZM16.558 11.005L16.146 10.808C14.318 9.93005 12.076 10.61 11.011 12.302C10.273 13.478 10.198 14.878 10.807 16.144L11.006 16.56C11.0805 16.7112 11.115 16.8789 11.1061 17.0472C11.0972 17.2155 11.0451 17.3787 10.955 17.521C10.8671 17.6665 10.7433 17.7869 10.5955 17.8708C10.4477 17.9547 10.2809 17.9992 10.111 18H9.99896C9.29123 17.9981 8.58684 17.9029 7.90396 17.717C4.84096 16.886 2.50096 14.238 2.07796 11.131C1.75696 8.77605 2.42996 6.50805 3.97096 4.74205C4.8477 3.73628 5.96201 2.9657 7.21252 2.50043C8.46302 2.03515 9.81002 1.88996 11.131 2.07805C14.238 2.50105 16.886 4.84205 17.717 7.90405C17.915 8.63405 18.01 9.37805 17.999 10.111C17.987 10.918 17.154 11.294 16.558 11.005Z" fill="#7015FF"/>
<path d="M5.5 14C6.32843 14 7 13.3284 7 12.5C7 11.6716 6.32843 11 5.5 11C4.67157 11 4 11.6716 4 12.5C4 13.3284 4.67157 14 5.5 14Z" fill="#7015FF"/>
<path d="M5.5 10C6.32843 10 7 9.32843 7 8.5C7 7.67157 6.32843 7 5.5 7C4.67157 7 4 7.67157 4 8.5C4 9.32843 4.67157 10 5.5 10Z" fill="#7015FF"/>
<path d="M8.5 7C9.32843 7 10 6.32843 10 5.5C10 4.67157 9.32843 4 8.5 4C7.67157 4 7 4.67157 7 5.5C7 6.32843 7.67157 7 8.5 7Z" fill="#7015FF"/>
<path d="M12.5 7C13.3284 7 14 6.32843 14 5.5C14 4.67157 13.3284 4 12.5 4C11.6716 4 11 4.67157 11 5.5C11 6.32843 11.6716 7 12.5 7Z" fill="#7015FF"/>
</svg>
