<svg width="21" height="21" viewBox="0 0 21 21" fill="none" xmlns="http://www.w3.org/2000/svg">
<path d="M0 2.33333C0 1.04467 1.04467 0 2.33333 0H7C8.28866 0 9.33333 1.04467 9.33333 2.33333V7C9.33333 8.28866 8.28866 9.33333 7 9.33333H2.33333C1.04467 9.33333 0 8.28866 0 7V2.33333ZM7 2.33333H2.33333V7H7V2.33333ZM0 14C0 12.7113 1.04467 11.6667 2.33333 11.6667H7C8.28866 11.6667 9.33333 12.7113 9.33333 14V18.6667C9.33333 19.9553 8.28866 21 7 21H2.33333C1.04467 21 0 19.9553 0 18.6667V14ZM7 14H2.33333V18.6667H7V14ZM11.6667 14C11.6667 12.7113 12.7113 11.6667 14 11.6667H18.6667C19.9553 11.6667 21 12.7113 21 14V18.6667C21 19.9553 19.9553 21 18.6667 21H14C12.7113 21 11.6667 19.9553 11.6667 18.6667V14ZM18.6667 14H14V18.6667H18.6667V14Z" fill="#7015FF"/>
</svg>
