<svg width="33" height="33" viewBox="0 0 33 33" fill="none" xmlns="http://www.w3.org/2000/svg">
<path d="M31.68 0H1.32C0.589875 0 0 0.589875 0 1.32V31.68C0 32.4101 0.589875 33 1.32 33H31.68C32.4101 33 33 32.4101 33 31.68V1.32C33 0.589875 32.4101 0 31.68 0ZM25.2326 9.63188C23.166 9.63188 22.7659 10.6136 22.7659 12.0574V15.2378H27.6994L27.0559 20.2166H22.7659V33H17.622V20.2208H13.3196V15.2378H17.622V11.5665C17.622 7.30538 20.2249 4.983 24.0281 4.983C25.8514 4.983 27.4148 5.11913 27.8726 5.181V9.63188H25.2326Z" fill="white"/>
</svg>
