<svg width="22" height="24" viewBox="0 0 22 24" fill="none" xmlns="http://www.w3.org/2000/svg">
<path d="M6.99998 2.66667C6.2636 2.66667 5.66665 3.26362 5.66665 4C5.66665 4.73638 6.2636 5.33333 6.99998 5.33333C7.73636 5.33333 8.33331 4.73638 8.33331 4C8.33331 3.26362 7.73636 2.66667 6.99998 2.66667ZM3.22759 2.66667C3.7767 1.11308 5.25835 0 6.99998 0C8.7416 0 10.2233 1.11308 10.7724 2.66667H20.3333C21.0697 2.66667 21.6666 3.26362 21.6666 4C21.6666 4.73638 21.0697 5.33333 20.3333 5.33333H10.7724C10.2233 6.88692 8.7416 8 6.99998 8C5.25835 8 3.7767 6.88692 3.22759 5.33333H1.66665C0.930267 5.33333 0.333313 4.73638 0.333313 4C0.333313 3.26362 0.930267 2.66667 1.66665 2.66667H3.22759ZM15 10.6667C14.2636 10.6667 13.6666 11.2636 13.6666 12C13.6666 12.7364 14.2636 13.3333 15 13.3333C15.7364 13.3333 16.3333 12.7364 16.3333 12C16.3333 11.2636 15.7364 10.6667 15 10.6667ZM11.2276 10.6667C11.7767 9.11308 13.2584 8 15 8C16.7416 8 18.2233 9.11308 18.7724 10.6667H20.3333C21.0697 10.6667 21.6666 11.2636 21.6666 12C21.6666 12.7364 21.0697 13.3333 20.3333 13.3333H18.7724C18.2233 14.8869 16.7416 16 15 16C13.2584 16 11.7767 14.8869 11.2276 13.3333H1.66665C0.930267 13.3333 0.333313 12.7364 0.333313 12C0.333313 11.2636 0.930267 10.6667 1.66665 10.6667H11.2276ZM6.99998 18.6667C6.2636 18.6667 5.66665 19.2636 5.66665 20C5.66665 20.7364 6.2636 21.3333 6.99998 21.3333C7.73636 21.3333 8.33331 20.7364 8.33331 20C8.33331 19.2636 7.73636 18.6667 6.99998 18.6667ZM3.22759 18.6667C3.7767 17.1131 5.25835 16 6.99998 16C8.7416 16 10.2233 17.1131 10.7724 18.6667H20.3333C21.0697 18.6667 21.6666 19.2636 21.6666 20C21.6666 20.7364 21.0697 21.3333 20.3333 21.3333H10.7724C10.2233 22.8869 8.7416 24 6.99998 24C5.25835 24 3.7767 22.8869 3.22759 21.3333H1.66665C0.930267 21.3333 0.333313 20.7364 0.333313 20C0.333313 19.2636 0.930267 18.6667 1.66665 18.6667H3.22759Z" fill="#7015FF"/>
</svg>
