<svg width="194" height="38" viewBox="0 0 194 38" fill="none" xmlns="http://www.w3.org/2000/svg">
<g clip-path="url(#clip0_2:5)">
<path d="M18.6119 26.4098V0L23.8404 6.4876V26.4098C23.8404 29.6989 22.6955 32.4535 20.4068 34.6719C18.1693 36.8909 15.3342 38.0002 11.9006 38.0002C8.51882 38.0002 5.68334 36.8911 3.39463 34.6719C1.13139 32.427 0 29.6732 0 26.4098V10.0034H5.22859V26.4098C5.22859 28.3421 5.86575 29.9474 7.14055 31.226C8.41488 32.5053 10.0017 33.1447 11.9008 33.1447C13.8256 33.1447 15.4253 32.5053 16.7001 31.226C17.9742 29.9474 18.6119 28.3418 18.6119 26.4098Z" fill="#7015FF"/>
<path d="M33.244 27.7411V37.4126H28.0154V10.0034H40.2673C42.9206 10.0034 45.1574 10.8521 46.9783 12.5486C48.7989 14.2193 49.7098 16.3211 49.7098 18.8527C49.7098 21.4113 48.7989 23.5257 46.9783 25.1959C45.1574 26.8931 42.9206 27.7411 40.2673 27.7411H33.244ZM40.2673 14.8587H33.244V22.8858H40.2673C41.4115 22.8858 42.3607 22.5009 43.1156 21.7307C43.8698 20.961 44.247 20.0019 44.247 18.8529C44.247 17.7044 43.8695 16.7519 43.1156 15.9946C42.3609 15.2375 41.4117 14.8587 40.2673 14.8587Z" fill="#7015FF"/>
<path d="M53.4555 37.4126V10.0034H58.6841V22.2201L68.9852 10.0034H75.6183L64.342 23.3949L76.3986 37.4129H69.7656L58.6843 24.5305V37.4129H53.4555V37.4126Z" fill="black"/>
<path d="M82.6026 37.4126H77.101L88.8066 10.0034H93.0596L104.765 37.4126H99.2635L97.1175 32.2439H84.7486L82.6026 37.4126ZM95.0886 27.428L90.9526 17.4822L86.7776 27.428H95.0886Z" fill="black"/>
<path d="M107.379 10.0034H120.021C122.674 10.0034 124.911 10.8521 126.732 12.5486C128.552 14.2193 129.463 16.3211 129.463 18.8527C129.463 20.6282 128.995 22.2269 128.058 23.6492C127.122 25.0722 125.86 26.1356 124.274 26.8404L130.517 37.4124H124.703L118.967 27.7409H112.607V37.4124H107.378V10.0034H107.379ZM120.021 14.8587H112.607V22.8858H120.021C121.165 22.8858 122.114 22.5009 122.869 21.7307C123.623 20.961 124.001 20.0019 124.001 18.8529C124.001 17.7044 123.624 16.7519 122.869 15.9946C122.114 15.2375 121.165 14.8587 120.021 14.8587Z" fill="black"/>
<path d="M138.945 37.4126H133.716V10.0034H138.945L148.739 27.3103L158.493 10.0034H163.722V37.4126H158.493V19.9489L150.456 34.3192H146.983L138.945 19.9881V37.4126H138.945Z" fill="black"/>
<path d="M171.837 37.4126H166.336L178.041 10.0034H182.294L194 37.4126H188.498L186.352 32.2439H173.983L171.837 37.4126ZM184.323 27.428L180.187 17.4822L176.012 27.428H184.323Z" fill="black"/>
</g>
<defs>
<clipPath id="clip0_2:5">
<rect width="194" height="38" fill="white"/>
</clipPath>
</defs>
</svg>
