<svg width="30" height="29" viewBox="0 0 30 29" fill="none" xmlns="http://www.w3.org/2000/svg">
<path d="M12 2.9C7.02944 2.9 3 6.79512 3 11.6C3 16.4049 7.02944 20.3 12 20.3C16.9706 20.3 21 16.4049 21 11.6C21 6.79512 16.9706 2.9 12 2.9ZM0 11.6C0 5.1935 5.37258 0 12 0C18.6274 0 24 5.1935 24 11.6C24 14.2806 23.0594 16.7489 21.4798 18.7132L29.5607 26.5247C30.1464 27.091 30.1464 28.009 29.5607 28.5753C28.9749 29.1416 28.0251 29.1416 27.4393 28.5753L19.3585 20.7638C17.3264 22.2907 14.7731 23.2 12 23.2C5.37258 23.2 0 18.0065 0 11.6ZM7.5 11.6C7.5 10.7992 8.17157 10.15 9 10.15H15C15.8284 10.15 16.5 10.7992 16.5 11.6C16.5 12.4008 15.8284 13.05 15 13.05H9C8.17157 13.05 7.5 12.4008 7.5 11.6Z" fill="#7015FF"/>
<circle cx="11.5" cy="11.5" r="7.5" fill="#E9E9E9"/>
</svg>
