<svg width="27" height="20" viewBox="0 0 27 20" fill="none" xmlns="http://www.w3.org/2000/svg">
<path d="M21.75 4.83333L16.9167 9.66667H20.5417C20.5417 13.6662 17.2912 16.9167 13.2917 16.9167C12.0712 16.9167 10.9112 16.6146 9.90833 16.0708L8.14417 17.835C9.63042 18.7775 11.3946 19.3333 13.2917 19.3333C18.6325 19.3333 22.9583 15.0075 22.9583 9.66667H26.5833L21.75 4.83333ZM6.04167 9.66667C6.04167 5.66708 9.29208 2.41667 13.2917 2.41667C14.5121 2.41667 15.6721 2.71875 16.675 3.2625L18.4392 1.49833C16.9529 0.555833 15.1887 0 13.2917 0C7.95083 0 3.625 4.32583 3.625 9.66667H0L4.83333 14.5L9.66667 9.66667H6.04167Z" fill="#7015FF"/>
</svg>
