<svg width="34" height="35" viewBox="0 0 34 35" fill="none" xmlns="http://www.w3.org/2000/svg">
<path d="M5.85474 6.19235L8.49371 23.3457C8.51292 23.4873 8.55308 23.6222 8.61099 23.7472C8.78531 24.1236 9.12034 24.4104 9.52801 24.5194C9.65256 24.5529 9.78308 24.5696 9.91658 24.5674H25.4424C26.0665 24.5674 26.6168 24.1579 26.7962 23.56L31.0366 9.42543C31.165 8.99747 31.0835 8.534 30.8167 8.17554C30.55 7.81707 30.1295 7.60581 29.6827 7.60581H8.93238L8.4675 4.5841C8.45009 4.45776 8.41597 4.33675 8.36747 4.22337C8.27941 4.0169 8.14459 3.83805 7.97803 3.69786C7.82351 3.56755 7.64066 3.46978 7.44004 3.41508C7.31377 3.3805 7.18128 3.36318 7.04572 3.36543H4.24043C3.45979 3.36543 2.82697 3.99826 2.82697 4.77889C2.82697 5.55952 3.45979 6.19235 4.24043 6.19235H5.85474ZM11.1069 21.7404L9.36729 10.4327H27.783L24.3907 21.7404H11.1069Z" fill="#7015FF"/>
<path d="M14.1347 28.8077C14.1347 30.369 12.869 31.6347 11.3077 31.6347C9.74647 31.6347 8.48081 30.369 8.48081 28.8077C8.48081 27.2465 9.74647 25.9808 11.3077 25.9808C12.869 25.9808 14.1347 27.2465 14.1347 28.8077Z" fill="#7015FF"/>
<path d="M26.8558 28.8077C26.8558 30.369 25.5902 31.6347 24.0289 31.6347C22.4676 31.6347 21.202 30.369 21.202 28.8077C21.202 27.2465 22.4676 25.9808 24.0289 25.9808C25.5902 25.9808 26.8558 27.2465 26.8558 28.8077Z" fill="#7015FF"/>
</svg>
