<?xml version="1.0" encoding="utf-8"?>
<!-- Generator: Adobe Illustrator 24.0.2, SVG Export Plug-In . SVG Version: 6.00 Build 0)  -->
<svg version="1.1" id="Слой_1" xmlns="http://www.w3.org/2000/svg" xmlns:xlink="http://www.w3.org/1999/xlink" x="0px" y="0px"
	 viewBox="0 0 512 512" style="enable-background:new 0 0 512 512;" xml:space="preserve">
<style type="text/css">
	.st0{fill:#FFFFFF;}
	.st1{fill:#7015ff}
</style>
<g>
	<g>
		<path class="st0" d="M505,506c-166.5,0-332.7,0-499,0C6,339.7,6,173.4,6,7c166.3,0,332.7,0,499,0C505,173.3,505,339.6,505,506z
			 M366.1,265.1c23.9-30.5,35.4-64.7,32.3-103.3c-3.1-38.8-19.4-71.2-48.2-97.2C299.8,19,224.4,15.2,168.5,55.4
			c-27.7,19.9-46.4,46.5-55.1,79.5c-12.5,47.6-2.4,91,27.4,130c-1.5,0.9-2.6,1.7-3.7,2.3c-37.7,22.4-66.8,53-86.9,92.1
			c-16.7,32.6-25,67.2-24.9,103.8c0,14,12.1,23.6,25.6,20.5c9.5-2.2,15.6-10,15.8-21.2c0.3-16.1,2.1-32,6.5-47.5
			c15.2-53.6,48-92.8,97.5-118.1c2.1-1.1,3.9-2,6.6-0.4c50.8,29.6,101.7,29.5,152.6,0.2c1.5-0.9,4.1-1.1,5.6-0.4
			c51.8,26,85.5,67,99.3,123.3c3.6,14.8,4,30.4,5.7,45.7c1.3,11.3,10.4,19.7,21.2,19.2c11.4-0.5,20-9.4,20-20.9
			c0-6.3-0.3-12.6-0.8-18.9c-4.9-57.3-28.4-105.7-69.5-145.8C398,285.5,382.7,274.8,366.1,265.1z"/>
		<path class="st1" d="M366.1,265.1c16.6,9.6,31.9,20.4,45.5,33.6c41.1,40,64.6,88.5,69.5,145.8c0.5,6.3,0.8,12.6,0.8,18.9
			c0,11.5-8.7,20.4-20,20.9c-10.9,0.4-20-7.9-21.2-19.2c-1.7-15.3-2.1-30.9-5.7-45.7c-13.9-56.3-47.6-97.3-99.3-123.3
			c-1.5-0.7-4.1-0.5-5.6,0.4c-50.9,29.3-101.8,29.4-152.6-0.2c-2.7-1.6-4.5-0.7-6.6,0.4c-49.6,25.3-82.3,64.6-97.5,118.1
			c-4.4,15.5-6.1,31.4-6.5,47.5c-0.2,11.2-6.3,19-15.8,21.2c-13.5,3.1-25.6-6.5-25.6-20.5c-0.1-36.6,8.2-71.3,24.9-103.8
			c20.1-39,49.2-69.7,86.9-92.1c1.1-0.7,2.2-1.4,3.7-2.3c-29.9-39-39.9-82.3-27.4-130c8.7-33,27.4-59.6,55.1-79.5
			c55.9-40.2,131.3-36.4,181.7,9.2c28.8,26,45.1,58.4,48.2,97.2C401.4,200.4,389.9,234.6,366.1,265.1z M253.6,276.6
			c57.2,0,103.7-46.3,103.8-103.4c0.1-57.4-46.4-104-103.7-104c-57.2,0-103.6,46.4-103.7,103.5C149.8,230.1,196.2,276.6,253.6,276.6
			z"/>
		<path class="st0" d="M253.6,276.6c-57.4,0-103.8-46.5-103.7-103.9c0.1-57.1,46.6-103.5,103.7-103.5c57.3,0,103.8,46.6,103.7,104
			C357.3,230.4,310.9,276.6,253.6,276.6z"/>
	</g>
</g>
</svg>
