<svg width="46" height="46" viewBox="0 0 46 46" fill="none" xmlns="http://www.w3.org/2000/svg">
<path d="M40.2405 13.9031C40.0357 13.148 39.6345 12.4596 39.0772 11.9067C38.5199 11.3538 37.826 10.9558 37.065 10.7526C34.2623 10 23 10 23 10C23 10 11.7377 10 8.93504 10.7526C8.17399 10.9558 7.48009 11.3538 6.92279 11.9067C6.3655 12.4596 5.96435 13.148 5.7595 13.9031C5.23617 16.7389 4.98221 19.6171 5.00097 22.5C4.98221 25.3829 5.23617 28.2611 5.7595 31.0969C5.96435 31.852 6.3655 32.5404 6.92279 33.0933C7.48009 33.6462 8.17399 34.0442 8.93504 34.2474C11.7377 35 23 35 23 35C23 35 34.2623 35 37.065 34.2474C37.826 34.0442 38.5199 33.6462 39.0772 33.0933C39.6345 32.5404 40.0357 31.852 40.2405 31.0969C40.7638 28.2611 41.0178 25.3829 40.999 22.5C41.0178 19.6171 40.7638 16.7389 40.2405 13.9031ZM19.4002 27.8571V17.1429L28.7468 22.5L19.4002 27.8571Z" fill="white"/>
</svg>
